<?xml version="1.0" encoding="UTF-8" standalone="no"?>
<svg xmlns="http://www.w3.org/2000/svg" width="120" height="32" viewBox="0 0 120 32" fill="none">
  <path d="M31.4 16C31.4 24.18 24.67 30.91 16.49 30.91C8.31 30.91 1.58 24.18 1.58 16C1.58 7.82 8.31 1.09 16.49 1.09C24.67 1.09 31.4 7.82 31.4 16Z" fill="#206BC4"/>
  <path d="M23.06 11.68C22.036 10.656 20.804 9.848 19.448 9.305C18.092 8.761 16.639 8.496 15.177 8.526C13.714 8.555 12.273 8.879 10.94 9.476C9.607 10.072 8.408 10.927 7.424 11.991C6.44 13.054 5.692 14.312 5.224 15.68C4.756 17.049 4.578 18.496 4.702 19.932C4.825 21.367 5.249 22.759 5.942 24.023C6.636 25.287 7.587 26.397 8.736 27.287C11.129 29.141 14.151 29.949 17.145 29.539C20.14 29.13 22.837 27.538 24.705 25.112C26.574 22.686 27.467 19.622 27.168 16.572C26.87 13.523 25.503 10.691 23.34 8.59" stroke="white" stroke-width="2" stroke-linecap="round" stroke-linejoin="round"/>
  <path d="M16.5 21C19.261 21 21.5 18.761 21.5 16C21.5 13.239 19.261 11 16.5 11C13.739 11 11.5 13.239 11.5 16C11.5 18.761 13.739 21 16.5 21Z" stroke="white" stroke-width="2" stroke-linecap="round" stroke-linejoin="round"/>
  <path d="M41.34 23V9H45.98C47.2 9 48.22 9.24 49.04 9.72C49.87 10.2 50.49 10.87 50.91 11.73C51.33 12.58 51.54 13.56 51.54 14.66V17.35C51.54 18.45 51.33 19.43 50.91 20.28C50.49 21.13 49.87 21.8 49.04 22.28C48.22 22.76 47.2 23 45.98 23H41.34ZM44.34 20.49H45.98C46.8 20.49 47.44 20.23 47.91 19.72C48.38 19.2 48.62 18.47 48.62 17.52V14.49C48.62 13.54 48.38 12.82 47.91 12.31C47.44 11.79 46.8 11.53 45.98 11.53H44.34V20.49Z" fill="white"/>
  <path d="M57.03 23.24C56.22 23.24 55.49 23.06 54.84 22.7C54.2 22.33 53.7 21.8 53.34 21.1C52.98 20.39 52.8 19.53 52.8 18.54V13.49C52.8 12.5 52.98 11.65 53.34 10.94C53.7 10.23 54.2 9.69 54.84 9.33C55.49 8.97 56.22 8.79 57.03 8.79C57.84 8.79 58.57 8.97 59.21 9.33C59.86 9.69 60.36 10.23 60.71 10.94C61.07 11.65 61.25 12.5 61.25 13.49V18.54C61.25 19.53 61.07 20.39 60.71 21.1C60.36 21.8 59.86 22.33 59.21 22.7C58.57 23.06 57.84 23.24 57.03 23.24ZM57.03 20.75C57.51 20.75 57.9 20.58 58.2 20.25C58.5 19.91 58.65 19.44 58.65 18.83V13.2C58.65 12.59 58.5 12.12 58.2 11.79C57.9 11.45 57.51 11.29 57.03 11.29C56.54 11.29 56.15 11.45 55.84 11.79C55.54 12.12 55.39 12.59 55.39 13.2V18.83C55.39 19.44 55.54 19.91 55.84 20.25C56.15 20.58 56.54 20.75 57.03 20.75Z" fill="white"/>
  <path d="M67.65 23.24C66.77 23.24 66.01 23.06 65.37 22.7C64.73 22.33 64.24 21.81 63.89 21.12C63.54 20.43 63.37 19.6 63.37 18.63V9H65.95V18.63C65.95 19.29 66.09 19.8 66.37 20.15C66.67 20.5 67.09 20.67 67.65 20.67C68.21 20.67 68.63 20.5 68.92 20.15C69.22 19.8 69.36 19.29 69.36 18.63V9H71.88V18.63C71.88 19.6 71.71 20.43 71.36 21.12C71.01 21.81 70.52 22.33 69.88 22.7C69.25 23.06 68.5 23.24 67.65 23.24Z" fill="white"/>
  <path d="M74.75 23V9H77.33V20.49H82.09V23H74.75Z" fill="white"/>
  <path d="M83.29 23V9H90.69V11.49H85.86V14.86H90.11V17.35H85.86V20.49H90.69V23H83.29Z" fill="white"/>
  <path d="M96.76 23.24C95.93 23.24 95.17 23.07 94.48 22.72C93.8 22.37 93.25 21.87 92.85 21.2C92.44 20.53 92.24 19.72 92.24 18.77V17.61H94.79V18.68C94.79 19.34 94.94 19.84 95.24 20.17C95.55 20.5 96.01 20.67 96.62 20.67C97.19 20.67 97.62 20.53 97.92 20.25C98.23 19.97 98.38 19.59 98.38 19.1C98.38 18.53 98.25 18.05 97.99 17.66C97.73 17.27 97.25 16.84 96.54 16.36L94.56 14.98C93.73 14.38 93.13 13.75 92.76 13.08C92.39 12.41 92.21 11.66 92.21 10.83C92.21 10.01 92.4 9.29 92.78 8.68C93.17 8.07 93.71 7.6 94.4 7.27C95.1 6.93 95.89 6.76 96.76 6.76C97.59 6.76 98.33 6.94 98.99 7.29C99.66 7.64 100.17 8.14 100.54 8.79C100.92 9.44 101.11 10.21 101.11 11.11V11.93H98.56V11.16C98.56 10.56 98.42 10.11 98.15 9.79C97.87 9.47 97.46 9.31 96.91 9.31C96.4 9.31 96 9.45 95.72 9.74C95.44 10.03 95.3 10.4 95.3 10.85C95.3 11.33 95.42 11.75 95.66 12.12C95.91 12.48 96.34 12.87 96.95 13.28L98.96 14.65C99.84 15.29 100.48 15.95 100.89 16.64C101.3 17.33 101.5 18.13 101.5 19.05C101.5 19.9 101.3 20.65 100.89 21.28C100.49 21.91 99.93 22.39 99.2 22.72C98.48 23.07 97.66 23.24 96.76 23.24Z" fill="white"/>
</svg>